#!OML:ASF I:\Actors\actors\Patient Classification 1\Patient 1\Session 1\Subject1.ASF
:FULLY-SPECIFIED
:DEGREES
463
root 0.629988 17.6459 8.11761 13.0823 10.1889 -7.56869
lowerback 8.23974 -1.44801 2.56259
upperback -6.69774 -1.53526 0.66034
thorax -11.9384 -0.912316 -0.438918
lowerneck -10.0616 3.8004 5.69177
upperneck 31.2739 5.5831 -4.04226
head 12.237 2.68805 -1.76685
rclavicle 2.11209e-014 -3.97569e-015
rhumerus -37.0926 19.5898 -85.5897
rradius 94.6969
rwrist 14.2614
rhand -24.7296 -39.9043
rfingers 7.12502
rthumb 1.77271 -69.8766
lclavicle 2.11209e-014 -3.97569e-015
lhumerus -5.97738 -64.56 94.4421
lradius 87.0479
lwrist 62.2444
lhand -41.3381 -27.6005
lfingers 7.12502
lthumb -14.2574 1.8901
rfemur -4.2085 23.1213 21.7483
rtibia 2.41924
rfoot -16.7239 -31.6919
rtoes 4.34253
lfemur -8.19761 -27.6083 -10.1155
ltibia 1.20895
lfoot -9.05109 30.1782
ltoes -2.46778
464
root 0.643373 17.6448 8.13047 13.0975 10.3814 -7.8252
lowerback 8.33531 -1.79505 2.54572
upperback -6.7397 -1.99299 0.771792
thorax -12.055 -1.12472 -0.218473
lowerneck -9.93065 4.20211 5.93028
upperneck 31.1749 6.06356 -3.89377
head 12.2052 2.94735 -1.68673
rclavicle 8.94531e-016 -1.59028e-015
rhumerus -37.4502 18.3177 -82.5953
rradius 96.519
rwrist 16.0121
rhand -24.2989 -40.5361
rfingers 7.12502
rthumb 2.18873 -70.5046
lclavicle 8.94531e-016 -1.59028e-015
lhumerus -7.31409 -65.1624 99.1028
lradius 87.9648
lwrist 62.1287
lhand -40.4917 -27.7445
lfingers 7.12502
lthumb -13.4417 1.80178
rfemur -4.16425 23.0411 22.076
rtibia 2.37206
rfoot -16.9548 -31.9041
rtoes 4.66
lfemur -8.40931 -27.3154 -9.76929
ltibia 1.41813
lfoot -9.08294 29.6289
ltoes -2.733
465
root 0.656631 17.6446 8.14248 13.1271 10.6446 -8.11507
lowerback 8.44875 -2.14433 2.62394
upperback -6.79236 -2.43994 0.881217
thorax -12.1976 -1.33965 -0.0521536
lowerneck -9.79374 4.58765 6.17356
upperneck 31.0797 6.52042 -3.74251
head 12.1729 3.19723 -1.61004
rclavicle -3.52843e-015 6.36111e-015
rhumerus -37.7164 17.1183 -79.6394
rradius 98.3951
rwrist 17.7383
rhand -24.3817 -41.1735
rfingers 7.12502
rthumb 2.10875 -71.1428
lclavicle -3.52843e-015 6.36111e-015
lhumerus -8.43984 -65.8535 103.439
lradius 88.8657
lwrist 61.8268
lhand -39.6808 -27.9149
lfingers 7.12502
lthumb -12.6601 1.68135
rfemur -4.13783 22.9953 22.4348
rtibia 2.32565
rfoot -17.2279 -32.122
rtoes 4.99846
lfemur -8.67105 -27.0059 -9.36105
ltibia 1.61211
lfoot -9.05036 29.0508
ltoes -3.08219
466
root 0.669951 17.6451 8.15368 13.1837 10.9858 -8.39282
lowerback 8.6036 -2.50022 2.72647
upperback -6.87457 -2.88912 1.00119
thorax -12.4001 -1.55668 0.118373
lowerneck -9.65193 4.95474 6.41648
upperneck 30.996 6.9611 -3.61763
head 12.145 3.43691 -1.54587
rclavicle 3.17559e-014 4.45278e-014
rhumerus -37.9379 16.0205 -76.7863
rradius 100.259
rwrist 19.3153
rhand -24.965 -41.7695
rfingers 7.12502
rthumb 1.5454 -71.7437
lclavicle 3.17559e-014 4.45278e-014
lhumerus -9.39758 -66.6232 107.43
lradius 89.7317
lwrist 61.3913
lhand -38.9341 -28.0777
lfingers 7.12502
lthumb -11.9401 1.56178
rfemur -4.12265 23.005 22.7724
rtibia 2.26034
rfoot -17.5177 -32.3872
rtoes 5.29142
lfemur -8.98205 -26.7305 -8.94079
ltibia 1.78059
lfoot -8.96568 28.4722
ltoes -3.45746
467
root 0.683429 17.6461 8.16416 13.2701 11.4104 -8.61923
lowerback 8.78549 -2.86354 2.81477
upperback -6.97617 -3.34817 1.12636
thorax -12.6407 -1.77605 0.310583
lowerneck -9.51228 5.30089 6.65844
upperneck 30.9106 7.38509 -3.5324
head 12.1181 3.66442 -1.49889
rclavicle 1.77415e-014 -7.15625e-015
rhumerus -38.1171 14.9794 -74.0847
rradius 102.038
rwrist 20.6764
rhand -25.8439 -42.2196
rfingers 7.12502
rthumb 0.696543 -72.1982
lclavicle 1.77415e-014 -7.15625e-015
lhumerus -10.1223 -67.5004 110.925
lradius 90.5473
lwrist 60.9363
lhand -38.2581 -28.2563
lfingers 7.12502
lthumb -11.2882 1.42
rfemur -4.09588 23.1011 23.0518
rtibia 2.15158
rfoot -17.8405 -32.7477
rtoes 5.5822
lfemur -9.3392 -26.5212 -8.55387
ltibia 1.92899
lfoot -8.84474 27.897
ltoes -3.81024
468
root 0.69721 17.6474 8.1736 13.3773 11.9116 -8.78675
lowerback 9.0039 -3.22493 2.87632
upperback -7.09142 -3.80551 1.26097
thorax -12.9167 -1.99044 0.535078
lowerneck -9.39383 5.61928 6.87971
upperneck 30.8321 7.78625 -3.48748
head 12.0984 3.87445 -1.46621
rclavicle 7.7526e-015 -3.49861e-014
rhumerus -38.2775 13.9461 -71.5753
rradius 103.658
rwrist 21.9081
rhand -26.7606 -42.6089
rfingers 7.12502
rthumb -0.188872 -72.5885
lclavicle 7.7526e-015 -3.49861e-014
lhumerus -10.5609 -68.516 113.804
lradius 91.2967
lwrist 60.5729
lhand -37.6771 -28.4485
lfingers 7.12502
lthumb -10.7278 1.25757
rfemur -4.03642 23.2966 23.2733
rtibia 1.98695
rfoot -18.2263 -33.2224
rtoes 5.95289
lfemur -9.73051 -26.3798 -8.21577
ltibia 2.06434
lfoot -8.69492 27.3175
ltoes -4.14699
469
root 0.709443 17.6504 8.18399 13.4738 12.4688 -8.85195
lowerback 9.25747 -3.56579 2.82861
upperback -7.19385 -4.25003 1.39562
thorax -13.1891 -2.18719 0.824125
lowerneck -9.31028 5.89775 7.05425
upperneck 30.7581 8.14652 -3.46754
head 12.0843 4.05769 -1.43968
rclavicle 2.13694e-015 -7.95139e-016
rhumerus -38.4148 12.843 -69.2917
rradius 105.077
rwrist 22.7752
rhand -27.6402 -43.0248
rfingers 7.12502
rthumb -1.03844 -73.0021
lclavicle 2.13694e-015 -7.95139e-016
lhumerus -10.6548 -69.7068 115.944
lradius 91.9406
lwrist 60.3321
lhand -37.1715 -28.6443
lfingers 7.12502
lthumb -10.2401 1.08644
rfemur -3.863 23.6872 23.4292
rtibia 1.73376
rfoot -18.7651 -33.9056
rtoes 6.54718
lfemur -10.0819 -26.3158 -7.99737
ltibia 2.16941
lfoot -8.52123 26.7339
ltoes -4.49265
470
root 0.719177 17.6554 8.19588 13.5605 13.05 -8.80702
lowerback 9.49426 -3.85747 2.66619
upperback -7.25967 -4.65 1.50397
thorax -13.3964 -2.35261 1.13918
lowerneck -9.27694 6.11891 7.1676
upperneck 30.6853 8.43094 -3.43632
head 12.0726 4.20109 -1.40769
rclavicle -1.4561e-014 -1.59028e-014
rhumerus -38.5725 11.6636 -67.3528
rradius 106.202
rwrist 23.4892
rhand -28.4279 -43.6221
rfingers 7.12502
rthumb -1.79916 -73.5943
lclavicle -1.4561e-014 -1.59028e-014
lhumerus -10.3526 -71.1164 117.229
lradius 92.4299
lwrist 60.1915
lhand -36.7368 -28.8281
lfingers 7.12502
lthumb -9.82073 0.92287
rfemur -3.57409 24.3125 23.5191
rtibia 1.39568
rfoot -19.5213 -34.8189
rtoes 7.47874
lfemur -10.3816 -26.3361 -7.90944
ltibia 2.24911
lfoot -8.34685 26.176
ltoes -4.81563
471
root 0.726077 17.6619 8.20922 13.6264 13.6391 -8.68631
lowerback 9.67313 -4.07883 2.44928
upperback -7.26907 -4.97242 1.56097
thorax -13.4962 -2.47936 1.40552
lowerneck -9.28077 6.26562 7.24261
upperneck 30.5975 8.60438 -3.37746
head 12.0515 4.29383 -1.37347
rclavicle 6.79844e-014 -3.57812e-014
rhumerus -38.7782 10.361 -65.8405
rradius 106.993
rwrist 23.8674
rhand -29.1939 -44.4019
rfingers 7.12502
rthumb -2.53896 -74.3665
lclavicle 6.79844e-014 -3.57812e-014
lhumerus -9.63309 -72.757 117.585
lradius 92.7177
lwrist 60.0936
lhand -36.39 -28.9666
lfingers 7.12502
lthumb -9.48613 0.799854
rfemur -3.17182 25.1791 23.5915
rtibia 0.990734
rfoot -20.5634 -35.9459
rtoes 8.86339
lfemur -10.6204 -26.4263 -7.91634
ltibia 2.30809
lfoot -8.18624 25.6569
ltoes -5.09796
472
root 0.730232 17.6691 8.22348 13.6844 14.1997 -8.51053
lowerback 9.7634 -4.21135 2.20582
upperback -7.22618 -5.18965 1.554
thorax -13.4794 -2.55925 1.58327
lowerneck -9.31473 6.32856 7.28937
upperneck 30.5094 8.64789 -3.27626
head 12.0239 4.33045 -1.33622
rclavicle -3.13086e-015 -5.56597e-015
rhumerus -39.086 9.0073 -64.8864
rradius 107.371
rwrist 24.0388
rhand -29.762 -45.1373
rfingers 7.12502
rthumb -3.08759 -75.0947
lclavicle -3.13086e-015 -5.56597e-015
lhumerus -8.50468 -74.5485 116.992
lradius 92.7631
lwrist 59.9607
lhand -36.1374 -29.0589
lfingers 7.12502
lthumb -9.24242 0.71849
rfemur -2.70646 26.2357 23.6521
rtibia 0.558052
rfoot -21.8853 -37.2035
rtoes 10.6396
lfemur -10.8122 -26.5633 -7.99455
ltibia 2.35095
lfoot -8.04958 25.2032
ltoes -5.30633
473
root 0.732953 17.6758 8.23676 13.777 14.6726 -8.28977
lowerback 9.72251 -4.23623 1.969
upperback -7.14748 -5.27288 1.46644
thorax -13.3463 -2.58382 1.62612
lowerneck -9.36779 6.30481 7.3193
upperneck 30.434 8.55024 -3.11282
head 11.9919 4.30971 -1.29238
rclavicle 7.95139e-016 2.54444e-014
rhumerus -39.4968 7.60441 -64.5658
rradius 107.302
rwrist 24.0252
rhand -30.0992 -45.7089
rfingers 7.12502
rthumb -3.41329 -75.6614
lclavicle 7.95139e-016 2.54444e-014
lhumerus -6.98432 -76.3571 115.449
lradius 92.529
lwrist 59.7285
lhand -35.991 -29.1813
lfingers 7.12502
lthumb -9.10112 0.60238
rfemur -2.29835 27.3243 23.6446
rtibia 0.159898
rfoot -23.3217 -38.4139
rtoes 12.5041
lfemur -11.0103 -26.7198 -8.12737
ltibia 2.3943
lfoot -7.94346 24.8594
ltoes -5.40568
474
root 0.73597 17.6807 8.24671 13.9398 15.0064 -8.03672
lowerback 9.59324 -4.15293 1.70797
upperback -7.08728 -5.21827 1.34294
thorax -13.1812 -2.54449 1.60737
lowerneck -9.42081 6.2076 7.30826
upperneck 30.4136 8.34189 -2.89453
head 11.97 4.24194 -1.23675
rclavicle 1.73937e-014 3.18055e-015
rhumerus -39.9795 6.27851 -64.9018
rradius 106.738
rwrist 23.8993
rhand -30.1514 -45.7321
rfingers 7.12502
rthumb -3.46367 -75.6837
lclavicle 1.73937e-014 3.18055e-015
lhumerus -5.23665 -77.9371 113.17
lradius 91.9837
lwrist 59.3568
lhand -35.9908 -29.3819
lfingers 7.12502
lthumb -9.10095 0.401738
rfemur -2.06464 28.2574 23.5028
rtibia -0.153773
rfoot -24.6181 -39.3993
rtoes 14.1001
lfemur -11.2655 -26.8734 -8.29721
ltibia 2.45682
lfoot -7.85478 24.6642
ltoes -5.41772
475
root 0.740799 17.6825 8.25103 14.1466 15.171 -7.82012
lowerback 9.43393 -3.96937 1.45429
upperback -7.06531 -5.02362 1.2355
thorax -13.0424 -2.43848 1.57395
lowerneck -9.47416 6.05394 7.21996
upperneck 30.4734 8.05547 -2.61861
head 11.9692 4.1381 -1.15727
rclavicle 1.92821e-014 -2.8625e-014
rhumerus -40.4538 5.15659 -65.9317
rradius 105.643
rwrist 23.5386
rhand -30.0788 -45.3988
rfingers 7.12502
rthumb -3.39354 -75.3515
lclavicle 1.92821e-014 -2.8625e-014
lhumerus -3.46904 -79.0939 110.421
lradius 91.0894
lwrist 58.8244
lhand -36.1684 -29.7778
lfingers 7.12502
lthumb -9.27231 -0.00165964
rfemur -2.04572 28.8757 23.2602
rtibia -0.357009
rfoot -25.5099 -40.0288
rtoes 15.1292
lfemur -11.5654 -26.9878 -8.44575
ltibia 2.54211
lfoot -7.76859 24.6272
ltoes -5.39221
476
root 0.74964 17.6793 8.24679 14.303 15.1876 -7.81958
lowerback 9.32964 -3.69695 1.41753
upperback -7.07421 -4.66495 1.19561
thorax -12.9891 -2.26858 1.46886
lowerneck -9.54051 5.85299 7.02647
upperneck 30.6153 7.70844 -2.28302
head 11.9933 4.00315 -1.04528
rclavicle -5.06901e-015 -1.90833e-014
rhumerus -40.804 4.22139 -67.592
rradius 104.04
rwrist 22.8125
rhand -29.9529 -44.8212
rfingers 7.12502
rthumb -3.27194 -74.7759
lclavicle -5.06901e-015 -1.90833e-014
lhumerus -1.95451 -79.7401 107.535
lradius 89.8325
lwrist 58.1337
lhand -36.592 -30.3919
lfingers 7.12502
lthumb -9.68105 -0.634374
rfemur -2.21052 29.033 23.1257
rtibia -0.432001
rfoot -25.7694 -40.2042
rtoes 15.3764
lfemur -11.8564 -26.9898 -8.40574
ltibia 2.64429
lfoot -7.67666 24.6989
ltoes -5.38496
477
root 0.760497 17.6719 8.23622 14.3104 15.0837 -8.10509
lowerback 9.34071 -3.33853 1.64626
upperback -7.07729 -4.13564 1.2465
thorax -13.0148 -2.03453 1.29005
lowerneck -9.64705 5.60731 6.7141
upperneck 30.8235 7.31158 -1.90982
head 12.0441 3.83753 -0.90404
rclavicle -2.66371e-014 -5.56597e-015
rhumerus -40.9398 3.51504 -69.8503
rradius 101.949
rwrist 21.7353
rhand -29.6453 -44.0845
rfingers 7.12502
rthumb -2.97492 -74.0435
lclavicle -2.66371e-014 -5.56597e-015
lhumerus -0.806996 -79.8766 104.69
lradius 88.2242
lwrist 57.2894
lhand -37.2646 -31.1658
lfingers 7.12502
lthumb -10.3299 -1.43951
rfemur -2.4129 28.8792 23.2718
rtibia -0.398812
rfoot -25.5219 -40.0403
rtoes 15.0073
lfemur -12.0146 -26.8454 -8.12745
ltibia 2.71706
lfoot -7.57671 24.8334
ltoes -5.42924
